<svg width="32" height="33" viewBox="0 0 32 33" fill="none" xmlns="http://www.w3.org/2000/svg">
<path opacity="0.1" fill-rule="evenodd" clip-rule="evenodd" d="M0 16.8359C0 7.99938 7.16344 0.835938 16 0.835938C24.8366 0.835938 32 7.99938 32 16.8359C32 25.6725 24.8366 32.8359 16 32.8359C7.16344 32.8359 0 25.6725 0 16.8359Z" fill="white"/>
<path fill-rule="evenodd" clip-rule="evenodd" d="M16.0008 8.30261C13.6833 8.30261 13.3924 8.31275 12.4822 8.35417C11.5737 8.39577 10.9536 8.53959 10.4111 8.75062C9.84981 8.96857 9.37372 9.26013 8.8994 9.73463C8.42473 10.2089 8.13317 10.685 7.9145 11.2461C7.70294 11.7889 7.55894 12.4091 7.51805 13.3172C7.47734 14.2275 7.46667 14.5185 7.46667 16.836C7.46667 19.1536 7.47699 19.4435 7.51823 20.3538C7.56001 21.2622 7.70383 21.8823 7.91468 22.4249C8.13282 22.9861 8.42437 23.4622 8.89887 23.9366C9.37301 24.4112 9.8491 24.7035 10.41 24.9215C10.9529 25.1325 11.5732 25.2763 12.4815 25.3179C13.3917 25.3593 13.6824 25.3695 15.9997 25.3695C18.3175 25.3695 18.6074 25.3593 19.5176 25.3179C20.4261 25.2763 21.0469 25.1325 21.5898 24.9215C22.1509 24.7035 22.6263 24.4112 23.1004 23.9366C23.5751 23.4622 23.8667 22.9861 24.0853 22.4251C24.2951 21.8823 24.4391 21.262 24.4818 20.3539C24.5227 19.4437 24.5333 19.1536 24.5333 16.836C24.5333 14.5185 24.5227 14.2277 24.4818 13.3174C24.4391 12.409 24.2951 11.7889 24.0853 11.2463C23.8667 10.685 23.5751 10.2089 23.1004 9.73463C22.6258 9.25996 22.1511 8.9684 21.5893 8.75062C21.0453 8.53959 20.4249 8.39577 19.5164 8.35417C18.6062 8.31275 18.3164 8.30261 15.9981 8.30261H16.0008ZM15.2353 9.84038C15.4625 9.84003 15.716 9.84038 16.0008 9.84038C18.2792 9.84038 18.5492 9.84856 19.449 9.88945C20.281 9.92749 20.7326 10.0665 21.0334 10.1833C21.4316 10.338 21.7155 10.5229 22.014 10.8215C22.3127 11.1202 22.4976 11.4047 22.6526 11.8029C22.7694 12.1033 22.9086 12.5549 22.9464 13.3869C22.9873 14.2865 22.9962 14.5567 22.9962 16.8341C22.9962 19.1114 22.9873 19.3816 22.9464 20.2812C22.9084 21.1132 22.7694 21.5648 22.6526 21.8652C22.4979 22.2634 22.3127 22.547 22.014 22.8455C21.7153 23.1442 21.4318 23.3291 21.0334 23.4837C20.7329 23.6011 20.281 23.7397 19.449 23.7778C18.5494 23.8187 18.2792 23.8276 16.0008 23.8276C13.7222 23.8276 13.4521 23.8187 12.5526 23.7778C11.7205 23.7394 11.269 23.6003 10.968 23.4835C10.5698 23.3289 10.2853 23.144 9.98666 22.8453C9.68799 22.5466 9.5031 22.2629 9.34808 21.8645C9.23128 21.5641 9.09208 21.1125 9.05421 20.2805C9.01332 19.3809 9.00514 19.1107 9.00514 16.8319C9.00514 14.5531 9.01332 14.2843 9.05421 13.3848C9.09226 12.5528 9.23128 12.1012 9.34808 11.8004C9.50275 11.4022 9.68799 11.1177 9.98666 10.8191C10.2853 10.5204 10.5698 10.3355 10.968 10.1805C11.2688 10.0631 11.7205 9.92447 12.5526 9.88625C13.3398 9.85069 13.6448 9.84003 15.2353 9.83825V9.84038ZM20.5558 11.2573C19.9905 11.2573 19.5318 11.7154 19.5318 12.2809C19.5318 12.8463 19.9905 13.305 20.5558 13.305C21.1212 13.305 21.5799 12.8463 21.5799 12.2809C21.5799 11.7156 21.1212 11.2573 20.5558 11.2573ZM16.0008 12.4537C13.5807 12.4537 11.6186 14.4159 11.6186 16.836C11.6186 19.2561 13.5807 21.2174 16.0008 21.2174C18.4209 21.2174 20.3824 19.2561 20.3824 16.836C20.3824 14.4159 18.4209 12.4537 16.0008 12.4537ZM16.0008 13.9915C17.5717 13.9915 18.8453 15.265 18.8453 16.836C18.8453 18.4069 17.5717 19.6805 16.0008 19.6805C14.4298 19.6805 13.1563 18.4069 13.1563 16.836C13.1563 15.265 14.4298 13.9915 16.0008 13.9915Z" fill="white"/>
</svg>
