<svg width="32" height="33" viewBox="0 0 32 33" fill="none" xmlns="http://www.w3.org/2000/svg">
<path opacity="0.1" fill-rule="evenodd" clip-rule="evenodd" d="M0 16.8359C0 7.99938 7.16344 0.835938 16 0.835938C24.8366 0.835938 32 7.99938 32 16.8359C32 25.6725 24.8366 32.8359 16 32.8359C7.16344 32.8359 0 25.6725 0 16.8359Z" fill="white"/>
<path fill-rule="evenodd" clip-rule="evenodd" d="M24.5333 16.8241C24.5333 17.4012 24.4746 17.9775 24.3592 18.5392C24.2467 19.0877 24.08 19.6261 23.8617 20.1408C23.6483 20.6463 23.3837 21.1335 23.0745 21.5879C22.77 22.0394 22.4191 22.463 22.0337 22.8491C21.6474 23.2335 21.2224 23.5834 20.7711 23.8893C20.3152 24.1963 19.8273 24.4606 19.3215 24.6749C18.806 24.8921 18.2664 25.0585 17.7184 25.1708C17.1559 25.2865 16.5776 25.3456 15.9996 25.3456C15.4213 25.3456 14.8429 25.2865 14.2812 25.1708C13.7324 25.0585 13.1928 24.8921 12.6778 24.6749C12.1719 24.4606 11.6836 24.1963 11.2277 23.8893C10.7764 23.5835 10.3514 23.2335 9.96599 22.8491C9.58015 22.463 9.22928 22.0394 8.92427 21.5879C8.61675 21.1335 8.35172 20.6463 8.13755 20.1408C7.91918 19.6261 7.75211 19.0876 7.63919 18.5392C7.52503 17.9775 7.46667 17.4012 7.46667 16.8241C7.46667 16.2466 7.52499 15.6691 7.63922 15.1085C7.75215 14.5601 7.91922 14.0209 8.13759 13.507C8.35175 13.0011 8.61678 12.5135 8.9243 12.0591C9.22931 11.6072 9.58018 11.1844 9.96602 10.7979C10.3515 10.4134 10.7765 10.0643 11.2278 9.75893C11.6836 9.45059 12.172 9.18641 12.6778 8.97169C13.1929 8.75403 13.7324 8.58721 14.2812 8.47571C14.8429 8.36088 15.4213 8.30261 15.9997 8.30261C16.5776 8.30261 17.1559 8.36088 17.7185 8.47571C18.2664 8.58724 18.806 8.75407 19.3215 8.97169C19.8273 9.18638 20.3153 9.45059 20.7711 9.75893C21.2224 10.0643 21.6475 10.4134 22.0337 10.7979C22.4191 11.1844 22.77 11.6072 23.0746 12.0591C23.3837 12.5135 23.6483 13.0011 23.8617 13.507C24.08 14.0209 24.2467 14.5601 24.3592 15.1085C24.4746 15.6691 24.5333 16.2466 24.5333 16.8241ZM12.8903 10.242C10.8581 11.2003 9.34131 13.0702 8.86836 15.3237C9.06048 15.3254 12.0973 15.3636 15.5962 14.4353C14.3349 12.1976 12.9874 10.3714 12.8903 10.242ZM16.2 15.5559C12.4477 16.6776 8.84711 16.5969 8.71795 16.5919C8.71585 16.6702 8.71211 16.7459 8.71211 16.8241C8.71211 18.6936 9.41839 20.3979 10.5793 21.6865C10.5768 21.6827 12.5711 18.1498 16.5038 16.8799C16.5988 16.8483 16.6955 16.8199 16.7913 16.7925C16.6084 16.3789 16.4087 15.9645 16.2 15.5559ZM20.8124 11.3625C19.5293 10.2328 17.8447 9.54757 15.9996 9.54757C15.4075 9.54757 14.8329 9.61915 14.2824 9.75146C14.3916 9.89794 15.7604 11.7112 17.0067 13.9963C19.7565 12.967 20.7944 11.3891 20.8124 11.3625ZM17.288 17.9983C17.2718 18.0037 17.2556 18.0083 17.2397 18.0141C12.94 19.5109 11.5358 22.5274 11.5206 22.5603C12.7578 23.521 14.3096 24.1006 15.9996 24.1006C17.0088 24.1006 17.9701 23.8955 18.8448 23.524C18.7368 22.8882 18.3135 20.6596 17.288 17.9983ZM20.0719 22.859C21.7082 21.7564 22.8703 20.0055 23.1945 17.9775C23.0445 17.9292 21.0057 17.2847 18.6535 17.6613C19.6093 20.2843 19.9977 22.4205 20.0719 22.859ZM17.5676 15.0807C17.7368 15.4277 17.9006 15.7809 18.0518 16.1359C18.1056 16.2632 18.1581 16.3881 18.2093 16.5129C20.7128 16.1983 23.1792 16.7276 23.2846 16.7492C23.2679 15.0241 22.65 13.4409 21.6275 12.2014C21.6137 12.2209 20.4449 13.9073 17.5676 15.0807Z" fill="white"/>
</svg>
