<svg width="32" height="33" viewBox="0 0 32 33" fill="none" xmlns="http://www.w3.org/2000/svg">
<path opacity="0.1" fill-rule="evenodd" clip-rule="evenodd" d="M0 16.8359C0 7.99938 7.16344 0.835938 16 0.835938C24.8366 0.835938 32 7.99938 32 16.8359C32 25.6725 24.8366 32.8359 16 32.8359C7.16344 32.8359 0 25.6725 0 16.8359Z" fill="white"/>
<path fill-rule="evenodd" clip-rule="evenodd" d="M15.5208 13.8409L15.5544 14.3945L14.9948 14.3268C12.9579 14.0669 11.1784 13.1856 9.66756 11.7055L8.92891 10.971L8.73865 11.5134C8.33575 12.7223 8.59316 13.9991 9.43253 14.8578C9.8802 15.3323 9.77948 15.4001 9.00725 15.1177C8.73865 15.0273 8.50363 14.9595 8.48124 14.9934C8.4029 15.0725 8.6715 16.1007 8.88414 16.5074C9.17513 17.0723 9.76828 17.626 10.4174 17.9536L10.9658 18.2135L10.3167 18.2248C9.68994 18.2248 9.66756 18.2361 9.73471 18.4734C9.95854 19.2078 10.8427 19.9874 11.8276 20.3264L12.5214 20.5636L11.9171 20.9252C11.0218 21.4449 9.96973 21.7387 8.91772 21.7613C8.41409 21.7726 8 21.8178 8 21.8517C8 21.9647 9.36538 22.5974 10.16 22.846C12.5438 23.5804 15.3753 23.264 17.5017 22.0099C19.0126 21.1173 20.5235 19.3434 21.2286 17.626C21.6091 16.7108 21.9896 15.0386 21.9896 14.2364C21.9896 13.7166 22.0232 13.6488 22.6499 13.0274C23.0192 12.6658 23.3662 12.2704 23.4333 12.1574C23.5452 11.9427 23.534 11.9427 22.9633 12.1348C22.012 12.4738 21.8777 12.4286 22.3477 11.9201C22.6947 11.5586 23.1088 10.9033 23.1088 10.7112C23.1088 10.6773 22.9409 10.7338 22.7506 10.8355C22.5492 10.9484 22.1015 11.1179 21.7658 11.2196L21.1614 11.4117L20.613 11.0388C20.3108 10.8355 19.8856 10.6095 19.6617 10.5417C19.0909 10.3835 18.218 10.4061 17.7032 10.5869C16.3042 11.0953 15.4201 12.406 15.5208 13.8409Z" fill="white"/>
</svg>
