<svg width="32" height="33" viewBox="0 0 32 33" fill="none" xmlns="http://www.w3.org/2000/svg">
<path opacity="0.1" fill-rule="evenodd" clip-rule="evenodd" d="M0 16.8359C0 7.99938 7.16344 0.835938 16 0.835938C24.8366 0.835938 32 7.99938 32 16.8359C32 25.6725 24.8366 32.8359 16 32.8359C7.16344 32.8359 0 25.6725 0 16.8359Z" fill="white"/>
<path fill-rule="evenodd" clip-rule="evenodd" d="M22.6677 11.3355C23.4021 11.537 23.9804 12.1307 24.1767 12.8847C24.5333 14.2513 24.5333 17.1026 24.5333 17.1026C24.5333 17.1026 24.5333 19.9538 24.1767 21.3204C23.9804 22.0744 23.4021 22.6682 22.6677 22.8698C21.3369 23.2359 16 23.2359 16 23.2359C16 23.2359 10.6631 23.2359 9.33218 22.8698C8.59783 22.6682 8.0195 22.0744 7.82323 21.3204C7.46667 19.9538 7.46667 17.1026 7.46667 17.1026C7.46667 17.1026 7.46667 14.2513 7.82323 12.8847C8.0195 12.1307 8.59783 11.537 9.33218 11.3355C10.6631 10.9692 16 10.9692 16 10.9692C16 10.9692 21.3369 10.9692 22.6677 11.3355ZM14.4 14.7025V20.0358L18.6667 17.3693L14.4 14.7025Z" fill="white"/>
</svg>
